<?xml version="1.0" standalone="no"?>
<!DOCTYPE svg PUBLIC "-//W3C//DTD SVG 20010904//EN"
 "http://www.w3.org/TR/2001/REC-SVG-20010904/DTD/svg10.dtd">
<svg version="1.0" xmlns="http://www.w3.org/2000/svg"
 width="700.000000pt" height="700.000000pt" viewBox="0 0 700.000000 700.000000"
 preserveAspectRatio="xMidYMid meet">
<metadata>
Created by potrace 1.11, written by Peter Selinger 2001-2013
</metadata>
<g transform="translate(0.000000,700.000000) scale(0.100000,-0.100000)"
fill="#000000" stroke="none">
<path d="M1943 6758 c-53 -11 -120 -70 -157 -137 -26 -49 -60 -150 -72 -216
-3 -16 -41 -192 -85 -390 -44 -198 -83 -371 -85 -385 -3 -14 -19 -86 -36 -160
-16 -74 -36 -164 -43 -200 -8 -36 -20 -94 -29 -130 -8 -36 -17 -76 -20 -90 -2
-14 -12 -56 -21 -95 -9 -38 -18 -81 -21 -95 -2 -14 -9 -43 -14 -65 -9 -37
-137 -616 -146 -660 -2 -11 -15 -72 -29 -135 -15 -63 -28 -126 -31 -140 -3
-14 -7 -33 -10 -42 -3 -9 -7 -25 -9 -36 -2 -11 -13 -64 -25 -118 -12 -55 -24
-110 -26 -124 -3 -14 -12 -54 -20 -90 -22 -95 -24 -100 -34 -152 -9 -44 -40
-186 -90 -408 -17 -73 -73 -334 -86 -395 -4 -23 -3 -15 -43 -200 -17 -77 -42
-192 -56 -255 -14 -63 -28 -128 -31 -145 -2 -16 -7 -38 -10 -47 -3 -9 -7 -25
-9 -35 -15 -75 -103 -478 -131 -608 -20 -88 -37 -168 -39 -178 -2 -10 -6 -26
-9 -35 -3 -9 -7 -34 -11 -56 -3 -21 -7 -42 -10 -46 -2 -3 -7 -22 -10 -41 -3
-19 -24 -115 -46 -214 -23 -99 -42 -199 -42 -222 -3 -100 117 -165 217 -118
55 26 80 79 121 255 55 234 132 517 160 590 20 52 43 113 50 135 19 58 143
396 155 420 5 11 49 128 98 260 91 242 186 493 203 530 4 11 22 56 40 100 17
44 37 94 44 110 7 17 59 143 115 280 148 360 325 774 417 970 44 94 102 217
129 275 78 169 367 744 439 875 37 66 83 149 102 185 20 36 44 77 55 92 10 14
18 29 18 32 0 24 277 447 359 548 144 179 330 341 459 400 77 36 178 44 226
18 46 -24 80 -108 94 -232 10 -90 6 -254 -7 -318 -6 -30 -13 -64 -15 -75 -9
-46 -106 -463 -115 -495 -6 -19 -12 -46 -15 -60 -3 -14 -30 -122 -61 -240
-173 -666 -211 -804 -361 -1310 -47 -157 -114 -382 -149 -500 -35 -118 -89
-300 -120 -405 -79 -270 -140 -468 -346 -1137 -80 -262 -135 -454 -189 -663
-16 -60 -49 -180 -74 -265 -49 -173 -56 -208 -58 -298 -1 -48 3 -68 18 -89 35
-46 70 -66 126 -70 68 -5 101 15 152 91 33 50 52 88 123 246 9 19 31 67 50
105 79 162 334 782 407 992 19 54 64 184 101 288 37 105 130 379 207 610 152
454 158 472 212 588 20 43 36 80 36 82 0 3 11 28 24 57 14 29 60 132 104 228
116 256 155 336 358 745 206 413 219 437 399 760 254 456 415 716 544 880 177
226 311 351 444 414 116 54 184 64 215 30 29 -30 53 -125 47 -184 -14 -140
-85 -431 -170 -700 -30 -93 -90 -286 -135 -429 -90 -286 -211 -659 -332 -1016
-44 -129 -81 -239 -82 -245 -1 -5 -32 -102 -68 -215 -109 -337 -172 -547 -258
-855 -34 -121 -75 -269 -92 -330 -42 -152 -115 -443 -122 -490 -4 -22 -13 -64
-21 -95 -17 -70 -78 -428 -91 -535 -3 -27 -7 -56 -9 -63 -11 -31 -20 -232 -19
-397 1 -200 11 -244 77 -342 45 -66 85 -87 166 -86 214 2 461 202 753 608 198
277 359 534 533 850 174 315 479 933 477 964 -1 14 -12 35 -24 48 -52 56 -130
4 -163 -108 -26 -88 -75 -195 -247 -539 -146 -292 -171 -340 -271 -515 -107
-190 -297 -496 -334 -540 -5 -5 -51 -66 -103 -135 -207 -274 -402 -426 -557
-432 -35 -2 -47 2 -56 17 -16 28 -17 143 -1 217 33 161 200 664 344 1038 341
889 611 1675 816 2380 68 234 205 766 219 850 3 19 8 42 10 50 6 21 35 213 41
275 3 28 7 64 9 80 17 121 23 472 11 580 -16 140 -46 256 -86 335 -30 58 -106
136 -157 160 -107 51 -273 19 -415 -79 -119 -82 -288 -268 -408 -447 -8 -13
-47 -67 -86 -121 -110 -152 -241 -352 -353 -536 -55 -93 -101 -170 -101 -172
0 -1 -29 -54 -63 -116 -126 -225 -214 -394 -367 -699 -144 -286 -250 -508
-250 -520 0 -5 -4 -11 -9 -14 -4 -3 0 29 11 72 25 103 118 540 123 574 2 15 6
35 9 45 3 10 7 32 10 48 3 17 12 73 21 125 10 52 19 109 22 125 2 17 11 70 19
118 8 49 17 112 20 140 3 29 7 62 9 74 21 131 22 600 1 753 -2 14 -7 46 -10
70 -3 25 -8 55 -10 66 -2 12 -7 38 -10 58 -42 264 -174 453 -337 481 -190 33
-393 -68 -594 -296 -389 -440 -684 -908 -1070 -1694 -141 -287 -245 -504 -245
-511 0 -2 -23 -52 -51 -111 -28 -60 -98 -218 -155 -353 -58 -135 -109 -254
-114 -265 -17 -35 -244 -593 -325 -797 -44 -109 -81 -196 -83 -194 -2 3 6 37
17 78 22 79 208 808 223 873 17 77 34 144 274 1085 36 140 67 262 69 270 1 8
35 141 75 295 39 154 73 288 75 299 2 10 16 64 31 120 14 55 28 109 30 119 2
10 6 27 9 37 3 10 7 27 10 37 2 10 22 92 45 183 23 91 43 172 45 180 2 8 31
123 65 255 33 132 61 263 61 290 2 112 -33 196 -101 241 -51 34 -141 53 -197
42z"/>
</g>
</svg>
