<svg id="Layer_1" data-name="Layer 1" xmlns="http://www.w3.org/2000/svg" width="260" height="260" viewBox="0 0 260 260"><defs><style>.cls-1{fill:#8d2840;}</style></defs><title>favicon-source</title><path class="cls-1" d="M15.24,243.11l21.64-99.4L64,20.77a32.28,32.28,0,0,1,1.31-4.64,14.37,14.37,0,0,1,2.26-4A9.62,9.62,0,0,1,71,9.36a7.78,7.78,0,0,1,5.11-.24,8.92,8.92,0,0,1,4.64,2.38,9.12,9.12,0,0,1,2.14,3.92,13.65,13.65,0,0,1,.35,4.76,25,25,0,0,1-.95,4.87L70.4,72.13,44.49,174.38q7.6-19.24,15.57-38.4t17-37.92q7.84-16.65,16.77-32.7a228.63,228.63,0,0,1,20.33-30.55l5.11-6.19a61.05,61.05,0,0,1,5.83-6.18,30.16,30.16,0,0,1,6.77-4.75,19,19,0,0,1,7.73-2.14,11.5,11.5,0,0,1,7.85,2.14,17.49,17.49,0,0,1,5,6.18,31,31,0,0,1,2.73,8.2c.56,2.94,1,5.59,1.31,8a137.94,137.94,0,0,1-.83,35.67q-2.75,17.82-6.78,35.19L147,119q2.15-4.76,4.4-9.39T156,100.2Q164.1,83.79,173,68a291.71,291.71,0,0,1,19.85-30.56q2.14-3.09,4.88-6.66a58.74,58.74,0,0,1,5.94-6.65,36.12,36.12,0,0,1,6.9-5.24,17.2,17.2,0,0,1,7.73-2.37,10.3,10.3,0,0,1,7.61,2.26,16.5,16.5,0,0,1,4.4,6.3,33.93,33.93,0,0,1,2.14,8.2,61,61,0,0,1,.59,8,147.84,147.84,0,0,1-3.92,35.66q-4.17,17.83-9.4,34.72-4,13.56-8.44,26.51t-9.15,26.28q-5.23,14.5-10.82,28.78t-10.11,29.24c-.16.63-.55,1.93-1.19,3.92a39.34,39.34,0,0,0-1.42,6.07,17.42,17.42,0,0,0-.12,5.35,2.06,2.06,0,0,0,2.49,2,17.69,17.69,0,0,0,7.38-2.73,35.88,35.88,0,0,0,6.65-5.47,73.86,73.86,0,0,0,5.71-6.65l4.76-6.3q5.22-7.6,9.75-15.34T224,187.46q2.15-4.28,4.28-8.43t4.05-8.44q1.18-2.15,2.14-4.28l1.9-4.28c.31-1.1.71-2.41,1.19-3.92A5.27,5.27,0,0,1,240,154.9a2.55,2.55,0,0,1,2.37-.24,2.91,2.91,0,0,1,1.67,1.9,3.17,3.17,0,0,1-.48,2.86,14.34,14.34,0,0,0-1.42,2.61q-2.15,4.53-4.28,8.92t-4.52,8.91q-4,7.86-8.44,15.82t-9.16,15.57q-4.75,7.13-9.75,14.15a103.4,103.4,0,0,1-11.17,13.19,47.05,47.05,0,0,1-5.23,4.41,25.38,25.38,0,0,1-6.54,3.45,12.77,12.77,0,0,1-6.54.59c-2.07-.4-3.73-1.94-5-4.64a15.29,15.29,0,0,1-2-7.25c-.08-2.62-.12-5.11-.12-7.49q.24-4.75.72-9.27t1.19-9q1.43-9.29,3.44-18.55t4.64-18.31q7.6-28.77,17.12-56.83t18.31-56.6a175.9,175.9,0,0,0,5-17.59c.48-2.22,1-4.88,1.55-8a11.47,11.47,0,0,0-1.07-8c-.63-1.27-1.75-1.71-3.33-1.31a28.84,28.84,0,0,0-3.57,1.07,27,27,0,0,0-7.37,4.52A56.35,56.35,0,0,0,199.76,36a102.15,102.15,0,0,0-10.94,14.62q-4.75,7.73-9.27,15.58-4.76,8.33-9.28,16.64t-8.79,16.89q-6.19,12.36-12,24.84t-11.3,25.31q-5.46,17.12-11.41,34.24-3.09,9-6.3,17.83t-7,17.6q-1.66,4-3.33,8t-3.56,8a78.27,78.27,0,0,0-3.57,7.73,26.3,26.3,0,0,1-4.28,7.25,4.51,4.51,0,0,1-2.85,1.67,6.37,6.37,0,0,1-3.21-.36A6.75,6.75,0,0,1,90,250,4.47,4.47,0,0,1,89,246.91a32.6,32.6,0,0,1,1.43-9.15q1.43-4.89,2.61-8.92,1.91-7.62,4.05-15.1t4.51-15.1q5-15.7,9.63-31.4t9.4-31.62q3.56-11.9,7-23.66t6.54-23.89l6.42-25Q142.45,55,144.47,46a38.87,38.87,0,0,0,.12-17.36q-.94-5-3.92-5.71a10.69,10.69,0,0,0-6.54.72,25.81,25.81,0,0,0-6.89,4.16c-2.23,1.82-4,3.36-5.24,4.63a82,82,0,0,0-10.22,12.49c-3,4.51-5.86,9.08-8.56,13.67Q94,74.51,86,90.92T70.4,124.21q-7.12,16.64-13.91,33.29T43.53,191q-3.09,7.84-5.82,15.45c-1.82,5.08-3.69,10.14-5.59,15.23L27.6,240l-1.42,5.23a5.58,5.58,0,0,1-2.74,3.68,6.17,6.17,0,0,1-4,.72,5.88,5.88,0,0,1-3.45-2,4.78,4.78,0,0,1-.71-4.51Z"/></svg>