<?xml version="1.0" encoding="UTF-8" standalone="no"?><!DOCTYPE svg PUBLIC "-//W3C//DTD SVG 1.1//EN" "http://www.w3.org/Graphics/SVG/1.1/DTD/svg11.dtd"><svg width="174" height="106" viewBox="0 0 174 106" version="1.1" xmlns="http://www.w3.org/2000/svg" xmlns:xlink="http://www.w3.org/1999/xlink" xml:space="preserve" xmlns:serif="http://www.serif.com/" style="fill-rule:evenodd;clip-rule:evenodd;stroke-linejoin:round;stroke-miterlimit:1.41421;"><rect id="Artboard1" x="0" y="0" width="174" height="105.1" style="fill:none;"/><clipPath id="_clip1"><rect x="0" y="0" width="174" height="105.1"/></clipPath><g clip-path="url(#_clip1)"><g id="Layer-1" serif:id="Layer 1"><path d="M0.118,63.608l5.024,-23.08l6.295,-28.546c0.073,-0.368 0.174,-0.727 0.304,-1.077c0.128,-0.349 0.303,-0.663 0.524,-0.939c0.221,-0.276 0.488,-0.487 0.8,-0.634c0.313,-0.147 0.709,-0.167 1.188,-0.056c0.477,0.111 0.837,0.295 1.077,0.552c0.238,0.258 0.404,0.562 0.496,0.911c0.092,0.35 0.119,0.718 0.083,1.105c-0.037,0.386 -0.11,0.764 -0.221,1.132l-2.761,10.932l-6.018,23.742c1.178,-2.981 2.383,-5.953 3.617,-8.916c1.232,-2.963 2.548,-5.899 3.948,-8.807c1.214,-2.577 2.512,-5.108 3.892,-7.593c1.381,-2.484 2.954,-4.849 4.721,-7.095c0.368,-0.442 0.764,-0.919 1.188,-1.435c0.422,-0.515 0.873,-0.994 1.352,-1.436c0.478,-0.442 1.003,-0.809 1.574,-1.104c0.57,-0.294 1.168,-0.46 1.794,-0.497c0.736,-0.036 1.343,0.129 1.822,0.497c0.478,0.368 0.865,0.847 1.16,1.435c0.294,0.59 0.505,1.224 0.635,1.905c0.128,0.682 0.229,1.298 0.303,1.85c0.295,2.761 0.23,5.521 -0.193,8.282c-0.424,2.761 -0.948,5.486 -1.574,8.172l-0.441,1.877c0.331,-0.736 0.671,-1.463 1.021,-2.181c0.35,-0.717 0.708,-1.444 1.077,-2.181c1.251,-2.54 2.568,-5.033 3.948,-7.481c1.38,-2.448 2.917,-4.813 4.61,-7.095c0.332,-0.478 0.709,-0.994 1.132,-1.546c0.423,-0.552 0.884,-1.068 1.381,-1.547c0.496,-0.477 1.03,-0.883 1.601,-1.214c0.57,-0.331 1.168,-0.515 1.794,-0.552c0.736,-0.037 1.326,0.138 1.767,0.524c0.442,0.387 0.782,0.875 1.021,1.464c0.24,0.589 0.405,1.223 0.498,1.904c0.091,0.682 0.138,1.298 0.138,1.85c0.036,2.761 -0.268,5.522 -0.912,8.282c-0.644,2.761 -1.371,5.448 -2.18,8.062c-0.627,2.098 -1.28,4.15 -1.961,6.156c-0.681,2.007 -1.389,4.04 -2.125,6.101c-0.81,2.245 -1.648,4.474 -2.512,6.682c-0.866,2.209 -1.648,4.471 -2.347,6.791c-0.037,0.146 -0.129,0.45 -0.276,0.911c-0.148,0.459 -0.258,0.93 -0.332,1.409c-0.074,0.476 -0.082,0.89 -0.027,1.242c0.055,0.349 0.248,0.505 0.579,0.468c0.589,-0.073 1.16,-0.285 1.712,-0.634c0.552,-0.351 1.067,-0.773 1.546,-1.271c0.478,-0.496 0.92,-1.012 1.326,-1.546c0.404,-0.533 0.772,-1.02 1.104,-1.462c0.809,-1.178 1.564,-2.365 2.264,-3.561c0.698,-1.197 1.38,-2.42 2.043,-3.673c0.331,-0.663 0.662,-1.316 0.993,-1.96c0.331,-0.644 0.644,-1.297 0.939,-1.959c0.184,-0.332 0.349,-0.664 0.497,-0.995l0.442,-0.994c0.073,-0.257 0.165,-0.561 0.276,-0.911c0.11,-0.35 0.294,-0.598 0.552,-0.745c0.183,-0.11 0.367,-0.129 0.552,-0.055c0.184,0.074 0.312,0.221 0.386,0.441c0.074,0.221 0.037,0.442 -0.11,0.663c-0.147,0.221 -0.258,0.424 -0.331,0.607c-0.331,0.7 -0.663,1.39 -0.994,2.071c-0.331,0.681 -0.682,1.371 -1.049,2.07c-0.626,1.214 -1.279,2.44 -1.96,3.672c-0.682,1.234 -1.39,2.438 -2.126,3.616c-0.737,1.104 -1.491,2.2 -2.264,3.286c-0.773,1.086 -1.638,2.106 -2.595,3.064c-0.331,0.332 -0.737,0.672 -1.215,1.022c-0.478,0.35 -0.985,0.616 -1.518,0.8c-0.534,0.184 -1.041,0.23 -1.518,0.138c-0.479,-0.092 -0.866,-0.45 -1.16,-1.076c-0.295,-0.515 -0.451,-1.076 -0.469,-1.684c-0.019,-0.607 -0.028,-1.187 -0.028,-1.739c0.036,-0.738 0.091,-1.456 0.166,-2.155c0.073,-0.698 0.165,-1.397 0.276,-2.097c0.221,-1.435 0.487,-2.872 0.8,-4.306c0.313,-1.437 0.672,-2.854 1.077,-4.252c1.178,-4.454 2.503,-8.853 3.975,-13.197c1.472,-4.343 2.89,-8.724 4.252,-13.141c0.442,-1.288 0.828,-2.65 1.16,-4.085c0.11,-0.516 0.229,-1.133 0.358,-1.851c0.129,-0.717 0.046,-1.333 -0.248,-1.849c-0.147,-0.294 -0.406,-0.395 -0.773,-0.304c-0.368,0.093 -0.644,0.175 -0.828,0.248c-0.627,0.259 -1.197,0.608 -1.712,1.05c-0.516,0.441 -0.994,0.92 -1.435,1.435c-0.958,1.068 -1.805,2.2 -2.54,3.396c-0.737,1.197 -1.455,2.402 -2.154,3.617c-0.736,1.289 -1.455,2.576 -2.153,3.865c-0.7,1.289 -1.381,2.595 -2.043,3.92c-0.957,1.914 -1.887,3.837 -2.789,5.77c-0.902,1.932 -1.776,3.893 -2.622,5.88c-0.847,2.65 -1.731,5.301 -2.651,7.951c-0.478,1.4 -0.966,2.781 -1.462,4.142c-0.498,1.362 -1.041,2.724 -1.629,4.085c-0.259,0.625 -0.516,1.242 -0.774,1.85c-0.257,0.607 -0.533,1.223 -0.828,1.85c-0.295,0.552 -0.571,1.15 -0.828,1.794c-0.258,0.644 -0.589,1.205 -0.994,1.684c-0.184,0.222 -0.405,0.349 -0.663,0.387c-0.257,0.035 -0.506,0.008 -0.745,-0.083c-0.24,-0.093 -0.441,-0.231 -0.607,-0.414c-0.166,-0.185 -0.248,-0.423 -0.248,-0.719c0,-0.662 0.11,-1.371 0.331,-2.124c0.221,-0.755 0.422,-1.445 0.607,-2.071c0.294,-1.18 0.608,-2.346 0.939,-3.507c0.331,-1.159 0.681,-2.327 1.049,-3.506c0.773,-2.429 1.518,-4.858 2.236,-7.289c0.718,-2.428 1.444,-4.876 2.181,-7.343c0.552,-1.84 1.095,-3.672 1.629,-5.494c0.533,-1.821 1.04,-3.671 1.518,-5.549l1.491,-5.797c0.294,-1.251 0.598,-2.576 0.911,-3.976c0.312,-1.398 0.322,-2.742 0.028,-4.03c-0.148,-0.774 -0.452,-1.215 -0.911,-1.326c-0.461,-0.11 -0.966,-0.055 -1.519,0.166c-0.552,0.221 -1.086,0.544 -1.601,0.967c-0.516,0.423 -0.92,0.782 -1.215,1.076c-0.883,0.884 -1.675,1.85 -2.374,2.899c-0.7,1.049 -1.362,2.108 -1.987,3.175c-1.436,2.466 -2.771,4.969 -4.004,7.509c-1.233,2.54 -2.439,5.117 -3.617,7.73c-1.104,2.577 -2.18,5.154 -3.229,7.73c-1.05,2.577 -2.053,5.173 -3.01,7.785c-0.479,1.215 -0.93,2.411 -1.353,3.589c-0.423,1.18 -0.855,2.355 -1.297,3.535l-1.049,4.251l-0.331,1.214c-0.111,0.406 -0.323,0.69 -0.635,0.856c-0.313,0.167 -0.627,0.22 -0.939,0.167c-0.313,-0.056 -0.58,-0.214 -0.8,-0.471c-0.222,-0.257 -0.277,-0.607 -0.166,-1.048" style="fill:#fff;fill-rule:nonzero;"/><path d="M70.295,36.276c0.11,-0.515 0.166,-1.067 0.166,-1.656c0,-0.588 -0.083,-1.16 -0.249,-1.712c-0.165,-0.552 -0.405,-1.049 -0.717,-1.49c-0.314,-0.443 -0.709,-0.774 -1.188,-0.995c-1.068,-0.477 -2.062,-0.459 -2.981,0.056c-0.921,0.516 -1.694,1.196 -2.319,2.043c-0.773,1.104 -1.473,2.273 -2.098,3.506c-0.627,1.234 -1.197,2.457 -1.712,3.672c-0.589,1.325 -1.123,2.659 -1.601,4.003c-0.479,1.344 -0.921,2.715 -1.325,4.113c-0.185,0.627 -0.351,1.252 -0.498,1.878c-0.147,0.626 -0.276,1.251 -0.386,1.877c-0.147,0.625 -0.267,1.307 -0.359,2.043c-0.092,0.737 0.028,1.399 0.359,1.988c0.331,0.552 0.746,0.855 1.243,0.91c0.496,0.056 1.011,-0.028 1.546,-0.248c0.533,-0.221 1.048,-0.506 1.545,-0.856c0.498,-0.349 0.892,-0.671 1.188,-0.966c0.994,-0.957 1.895,-2.015 2.705,-3.175c0.809,-1.159 1.583,-2.327 2.319,-3.506l1.657,-2.982c0.294,-1.472 0.662,-2.917 1.104,-4.334c0.442,-1.416 0.975,-2.807 1.601,-4.169m13.251,8.227c-0.662,1.179 -1.334,2.366 -2.015,3.561c-0.682,1.197 -1.427,2.357 -2.236,3.479c-0.81,1.124 -1.675,2.172 -2.595,3.147c-0.92,0.977 -1.951,1.832 -3.092,2.568c-0.405,0.294 -0.828,0.542 -1.27,0.745c-0.442,0.202 -0.875,0.322 -1.297,0.36c-0.424,0.035 -0.838,-0.028 -1.243,-0.194c-0.405,-0.166 -0.792,-0.488 -1.159,-0.967c-0.406,-0.477 -0.727,-1.029 -0.966,-1.656c-0.24,-0.625 -0.414,-1.279 -0.525,-1.961c-0.11,-0.679 -0.175,-1.361 -0.194,-2.042c-0.018,-0.681 -0.009,-1.333 0.028,-1.961c0,-0.256 0.009,-0.504 0.028,-0.744c0.018,-0.239 0.046,-0.507 0.082,-0.801c-0.515,0.81 -1.031,1.593 -1.545,2.347c-0.516,0.755 -1.049,1.5 -1.601,2.235c-0.59,0.774 -1.353,1.603 -2.292,2.485c-0.939,0.884 -1.933,1.566 -2.982,2.043c-1.049,0.478 -2.079,0.636 -3.092,0.47c-1.012,-0.167 -1.905,-0.911 -2.677,-2.237c-0.7,-1.178 -1.133,-2.447 -1.298,-3.809c-0.166,-1.361 -0.156,-2.752 0.027,-4.169c0.185,-1.417 0.489,-2.798 0.912,-4.141c0.422,-1.344 0.891,-2.604 1.407,-3.782c0.515,-1.105 1.123,-2.245 1.822,-3.424c0.699,-1.177 1.5,-2.263 2.403,-3.257c0.901,-0.994 1.905,-1.84 3.009,-2.54c1.104,-0.699 2.319,-1.16 3.644,-1.381c1.399,-0.22 2.668,0 3.81,0.663c1.14,0.663 1.913,1.675 2.319,3.037c0.073,0.295 0.128,0.589 0.166,0.883l0.11,0.884l0.662,-1.105c0.257,-0.441 0.58,-0.938 0.967,-1.49c0.386,-0.553 0.819,-1.067 1.297,-1.546c0.478,-0.479 0.994,-0.874 1.546,-1.188c0.552,-0.312 1.14,-0.45 1.767,-0.414c0.478,0.037 0.672,0.249 0.58,0.636c-0.093,0.386 -0.193,0.709 -0.304,0.966c-0.221,0.552 -0.451,1.095 -0.69,1.629c-0.24,0.534 -0.451,1.058 -0.636,1.573c-0.588,1.583 -1.15,3.157 -1.683,4.721c-0.534,1.565 -1.041,3.175 -1.518,4.831l-0.884,2.982c-0.295,0.994 -0.552,2.006 -0.773,3.037c-0.11,0.516 -0.24,1.058 -0.386,1.629c-0.148,0.571 -0.277,1.141 -0.387,1.711c-0.111,0.571 -0.184,1.142 -0.221,1.712c-0.037,0.571 -0.019,1.132 0.055,1.684c0.111,0.589 0.415,0.91 0.912,0.966c0.496,0.055 0.984,-0.028 1.463,-0.248c0.846,-0.369 1.629,-0.966 2.346,-1.794c0.718,-0.828 1.353,-1.592 1.905,-2.293c0.663,-0.845 1.288,-1.719 1.877,-2.623c0.589,-0.901 1.141,-1.83 1.657,-2.787c0.294,-0.515 0.58,-1.013 0.856,-1.492c0.276,-0.476 0.561,-0.975 0.855,-1.49c0.073,-0.147 0.185,-0.24 0.332,-0.276c0.147,-0.037 0.294,-0.018 0.441,0.055c0.147,0.074 0.249,0.184 0.304,0.331c0.055,0.148 0.046,0.295 -0.028,0.442" style="fill:#fff;fill-rule:nonzero;"/><path d="M81.504,45.939l3.369,-7.234l1.766,-3.754c0.589,-1.251 1.105,-2.521 1.547,-3.81c-0.738,-0.883 -1.335,-1.812 -1.795,-2.788c-0.461,-0.975 -0.507,-2.051 -0.138,-3.23c0.184,-0.699 0.561,-1.297 1.131,-1.795c0.571,-0.497 1.225,-0.708 1.961,-0.635c0.773,0.037 1.388,0.341 1.85,0.911c0.459,0.571 0.69,1.224 0.69,1.96c0,0.479 -0.075,0.939 -0.222,1.381c-0.147,0.441 -0.313,0.884 -0.496,1.325l0.496,1.325c0.186,0.663 0.377,1.325 0.58,1.988c0.203,0.663 0.451,1.307 0.746,1.933c0.257,0.589 0.542,1.159 0.857,1.711c0.31,0.552 0.578,1.123 0.8,1.712c0.367,0.958 0.487,2.006 0.358,3.147c-0.129,1.141 -0.285,2.191 -0.468,3.147c-0.296,1.399 -0.628,2.76 -0.994,4.087c-0.369,1.324 -0.775,2.631 -1.215,3.919c-0.075,0.259 -0.241,0.701 -0.498,1.326c-0.256,0.626 -0.479,1.27 -0.662,1.933c-0.186,0.662 -0.276,1.269 -0.276,1.821c0,0.552 0.203,0.883 0.608,0.993c0.513,0.149 1.012,0.149 1.49,0c0.477,-0.146 0.939,-0.366 1.381,-0.662c0.442,-0.293 0.845,-0.634 1.214,-1.021c0.367,-0.387 0.682,-0.763 0.938,-1.131c0.775,-1.105 1.454,-2.265 2.043,-3.479c0.589,-1.214 1.104,-2.465 1.546,-3.755c0.037,-0.074 0.102,-0.276 0.195,-0.607c0.09,-0.331 0.2,-0.644 0.329,-0.94c0.13,-0.293 0.285,-0.504 0.471,-0.634c0.183,-0.129 0.366,-0.028 0.552,0.303c0.073,0.148 0.082,0.351 0.028,0.607c-0.056,0.259 -0.138,0.526 -0.248,0.802c-0.112,0.276 -0.231,0.543 -0.36,0.801c-0.13,0.257 -0.212,0.459 -0.248,0.606c-0.516,1.253 -1.068,2.467 -1.657,3.645c-0.589,1.178 -1.307,2.301 -2.152,3.368c-0.665,0.846 -1.437,1.656 -2.321,2.43c-0.882,0.772 -1.896,1.232 -3.037,1.38c-0.589,0.073 -1.104,0.017 -1.545,-0.166c-0.442,-0.185 -0.811,-0.451 -1.104,-0.8c-0.296,-0.35 -0.535,-0.764 -0.718,-1.243c-0.185,-0.478 -0.313,-0.974 -0.386,-1.49c-0.186,-1.4 -0.176,-2.797 0.027,-4.197c0.201,-1.398 0.505,-2.761 0.911,-4.085c0.404,-1.289 0.865,-2.569 1.38,-3.838c0.515,-1.27 1.049,-2.531 1.601,-3.782c0.332,-0.81 0.507,-1.464 0.524,-1.961c0.02,-0.496 -0.192,-1.149 -0.634,-1.96c-0.295,-0.552 -0.673,-1.094 -1.132,-1.629c-0.46,-0.533 -0.948,-1.076 -1.463,-1.628c-0.589,1.289 -1.169,2.558 -1.74,3.809c-0.57,1.252 -1.169,2.504 -1.794,3.755l-1.104,2.319c-0.368,0.773 -0.737,1.565 -1.105,2.374c-0.11,0.296 -0.257,0.71 -0.441,1.242c-0.185,0.535 -0.424,0.857 -0.718,0.967c-0.258,0.11 -0.469,0.064 -0.635,-0.138c-0.165,-0.202 -0.193,-0.414 -0.083,-0.635" style="fill:#fff;fill-rule:nonzero;"/><path d="M112.977,14.025c-0.774,0 -1.363,-0.249 -1.769,-0.746c-0.405,-0.497 -0.606,-1.049 -0.606,-1.656c0,-0.608 0.201,-1.168 0.606,-1.684c0.406,-0.515 0.995,-0.774 1.769,-0.774c0.772,0 1.361,0.259 1.766,0.774c0.404,0.516 0.607,1.076 0.607,1.684c0,0.607 -0.203,1.159 -0.607,1.656c-0.405,0.497 -0.994,0.746 -1.766,0.746m3.975,30.478c-0.628,1.179 -1.279,2.366 -1.961,3.561c-0.681,1.197 -1.427,2.357 -2.236,3.479c-0.809,1.124 -1.676,2.172 -2.595,3.147c-0.921,0.977 -1.952,1.832 -3.093,2.568c-0.44,0.294 -0.901,0.542 -1.38,0.745c-0.479,0.202 -0.947,0.312 -1.406,0.332c-0.462,0.017 -0.904,-0.083 -1.327,-0.304c-0.423,-0.22 -0.82,-0.589 -1.186,-1.105c-0.736,-1.03 -1.161,-2.217 -1.271,-3.561c-0.11,-1.343 -0.129,-2.622 -0.056,-3.837c0.223,-2.871 0.775,-5.715 1.657,-8.531c0.884,-2.816 1.915,-5.549 3.093,-8.199c0.11,-0.257 0.293,-0.709 0.552,-1.353c0.257,-0.644 0.561,-1.242 0.91,-1.794c0.349,-0.553 0.746,-0.958 1.188,-1.215c0.443,-0.257 0.902,-0.111 1.381,0.441c0.183,0.221 0.293,0.47 0.33,0.746c0.037,0.276 0.028,0.561 -0.026,0.856c-0.056,0.295 -0.121,0.589 -0.194,0.883c-0.074,0.295 -0.13,0.552 -0.166,0.773c-0.184,0.7 -0.35,1.39 -0.496,2.071c-0.149,0.681 -0.313,1.372 -0.499,2.07l-1.986,8.172l-1.38,5.743c-0.11,0.515 -0.222,1.021 -0.333,1.518c-0.11,0.496 -0.202,1.003 -0.276,1.518c-0.073,0.443 -0.146,0.921 -0.22,1.436c-0.075,0.516 -0.019,0.976 0.167,1.38c0.109,0.295 0.293,0.489 0.552,0.579c0.256,0.093 0.541,0.111 0.854,0.056c0.313,-0.056 0.617,-0.146 0.912,-0.276c0.293,-0.129 0.533,-0.248 0.718,-0.359c0.736,-0.588 1.426,-1.251 2.071,-1.987c0.643,-0.736 1.242,-1.472 1.794,-2.209c0.626,-0.846 1.223,-1.713 1.795,-2.595c0.569,-0.884 1.113,-1.785 1.628,-2.707l1.491,-2.594c0.183,-0.331 0.442,-0.405 0.772,-0.221c0.332,0.184 0.405,0.442 0.222,0.773" style="fill:#fff;fill-rule:nonzero;"/><path d="M130.589,14.025c-0.774,0 -1.363,-0.249 -1.768,-0.746c-0.406,-0.497 -0.606,-1.049 -0.606,-1.656c0,-0.608 0.2,-1.168 0.606,-1.684c0.405,-0.515 0.994,-0.774 1.768,-0.774c0.773,0 1.361,0.259 1.767,0.774c0.403,0.516 0.606,1.076 0.606,1.684c0,0.607 -0.203,1.159 -0.606,1.656c-0.406,0.497 -0.994,0.746 -1.767,0.746m-29.264,51.294c-1.031,0.994 -1.941,2.09 -2.734,3.286c-0.79,1.195 -1.443,2.475 -1.959,3.838c-0.222,0.625 -0.397,1.287 -0.526,1.986c-0.127,0.699 -0.164,1.389 -0.11,2.071c0.056,0.681 0.213,1.343 0.47,1.988c0.257,0.643 0.682,1.186 1.27,1.629c0.553,0.442 1.141,0.69 1.767,0.746c0.625,0.054 1.234,-0.028 1.822,-0.249c0.589,-0.221 1.15,-0.534 1.683,-0.94c0.535,-0.405 1.005,-0.846 1.408,-1.324c0.662,-0.848 1.197,-1.749 1.603,-2.706c0.405,-0.957 0.772,-1.95 1.104,-2.981c0.809,-2.429 1.544,-4.868 2.208,-7.316c0.663,-2.448 1.325,-4.887 1.987,-7.316c-1.766,1.067 -3.496,2.18 -5.189,3.341c-1.693,1.159 -3.294,2.475 -4.804,3.947m26.005,-20.706c-0.515,1.104 -1.132,2.118 -1.848,3.037c-0.718,0.921 -1.519,1.777 -2.403,2.569c-0.884,0.791 -1.814,1.527 -2.789,2.208c-0.974,0.682 -1.96,1.334 -2.952,1.96l-1.381,4.472c-0.884,2.761 -1.831,5.513 -2.844,8.254c-1.012,2.742 -2.237,5.383 -3.672,7.924c-0.625,1.068 -1.315,2.107 -2.07,3.119c-0.755,1.013 -1.628,1.887 -2.623,2.623c-1.104,0.774 -2.346,1.279 -3.727,1.518c-1.38,0.24 -2.642,-0.082 -3.783,-0.966c-0.919,-0.699 -1.546,-1.555 -1.876,-2.567c-0.332,-1.013 -0.47,-2.07 -0.414,-3.175c0.054,-1.104 0.267,-2.2 0.634,-3.284c0.368,-1.088 0.791,-2.071 1.27,-2.955c1.141,-2.099 2.586,-3.92 4.335,-5.466c1.747,-1.546 3.598,-2.963 5.548,-4.252c0.847,-0.552 1.676,-1.077 2.484,-1.573c0.811,-0.498 1.64,-1.003 2.485,-1.519c0.518,-1.877 1.031,-3.763 1.547,-5.659c0.515,-1.896 1.067,-3.783 1.656,-5.66c0.442,-1.398 0.902,-2.797 1.38,-4.196c0.479,-1.399 0.995,-2.779 1.547,-4.141c0.515,-1.251 1.095,-2.521 1.738,-3.81c0.645,-1.288 1.445,-2.411 2.403,-3.368c0.147,-0.147 0.321,-0.304 0.524,-0.47c0.203,-0.165 0.423,-0.312 0.662,-0.441c0.24,-0.129 0.479,-0.202 0.718,-0.221c0.24,-0.019 0.471,0.046 0.691,0.193c0.222,0.185 0.34,0.35 0.36,0.497c0.017,0.148 -0.028,0.303 -0.138,0.469c-0.112,0.166 -0.242,0.323 -0.389,0.47c-0.146,0.147 -0.256,0.276 -0.33,0.386c-0.478,0.958 -0.838,1.979 -1.076,3.065c-0.241,1.086 -0.507,2.144 -0.802,3.174c-0.736,2.651 -1.462,5.31 -2.181,7.979c-0.718,2.669 -1.462,5.327 -2.236,7.978l1.436,-0.994c0.919,-0.662 1.803,-1.361 2.651,-2.098c0.845,-0.736 1.637,-1.545 2.375,-2.429c0.735,-0.846 1.361,-1.785 1.876,-2.816c0.073,-0.184 0.183,-0.359 0.332,-0.525c0.147,-0.165 0.35,-0.193 0.606,-0.082c0.147,0.073 0.248,0.184 0.304,0.331c0.056,0.148 0.046,0.294 -0.028,0.441" style="fill:#fff;fill-rule:nonzero;"/><path d="M139.81,20.761c0.662,-1.361 1.316,-2.714 1.959,-4.059c0.645,-1.343 1.262,-2.714 1.85,-4.113c0.552,-1.325 1.085,-2.659 1.601,-4.003c0.515,-1.343 0.921,-2.714 1.216,-4.114c0.035,-0.146 0.082,-0.367 0.138,-0.662c0.054,-0.294 0.091,-0.598 0.11,-0.911c0.017,-0.312 0,-0.589 -0.056,-0.828c-0.054,-0.239 -0.192,-0.377 -0.414,-0.415c-0.257,-0.073 -0.507,0.047 -0.744,0.36c-0.242,0.312 -0.414,0.561 -0.526,0.745c-0.736,1.068 -1.297,2.218 -1.683,3.451c-0.388,1.233 -0.819,2.439 -1.298,3.616c-1.29,3.129 -2.457,6.277 -3.507,9.442c-1.048,3.166 -2.034,6.369 -2.953,9.607c1.471,-2.686 2.908,-5.392 4.307,-8.116m4.417,15.074c0.147,-0.221 0.339,-0.581 0.578,-1.077c0.24,-0.497 0.434,-1.012 0.581,-1.546c0.146,-0.533 0.211,-1.04 0.194,-1.518c-0.02,-0.479 -0.231,-0.81 -0.636,-0.995c-0.553,-0.294 -1.105,-0.358 -1.657,-0.193c-0.552,0.166 -1.068,0.433 -1.544,0.801c-0.921,0.699 -1.749,1.537 -2.485,2.512c-0.738,0.976 -1.419,1.942 -2.045,2.899c-0.625,0.958 -1.242,1.924 -1.848,2.899c-0.608,0.976 -1.169,1.96 -1.684,2.953c1.141,0.037 2.225,-0.11 3.256,-0.442c1.031,-0.331 1.998,-0.8 2.899,-1.407c0.902,-0.607 1.721,-1.334 2.459,-2.181c0.736,-0.846 1.38,-1.748 1.932,-2.705m-19.381,21.036c-0.073,-1.03 -0.036,-2.06 0.11,-3.091c0.149,-1.031 0.313,-2.043 0.498,-3.037c0.257,-1.251 0.488,-2.494 0.691,-3.727c0.202,-1.234 0.431,-2.476 0.69,-3.727c0.183,-0.958 0.403,-1.886 0.662,-2.789c0.257,-0.902 0.496,-1.831 0.718,-2.788c1.471,-5.816 3.128,-11.54 4.969,-17.172c0.477,-1.436 0.967,-2.871 1.463,-4.307c0.496,-1.436 1.022,-2.852 1.574,-4.251c0.514,-1.288 1.066,-2.568 1.657,-3.838c0.586,-1.27 1.305,-2.475 2.152,-3.616c0.332,-0.442 0.708,-0.929 1.133,-1.464c0.422,-0.533 0.882,-1.03 1.38,-1.491c0.496,-0.459 1.02,-0.836 1.572,-1.131c0.552,-0.294 1.141,-0.442 1.769,-0.442c0.625,0 1.085,0.148 1.38,0.442c0.294,0.295 0.488,0.662 0.578,1.104c0.093,0.442 0.112,0.92 0.056,1.436c-0.056,0.515 -0.138,0.975 -0.248,1.38c-0.332,1.399 -0.765,2.743 -1.298,4.031c-0.533,1.288 -1.096,2.577 -1.685,3.865c-0.625,1.399 -1.268,2.761 -1.932,4.085c-0.662,1.326 -1.344,2.67 -2.043,4.032c-0.957,1.914 -1.941,3.819 -2.952,5.714c-1.014,1.896 -2.017,3.782 -3.011,5.66c-0.367,1.288 -0.716,2.567 -1.048,3.837c-0.333,1.27 -0.663,2.549 -0.995,3.838c-0.22,0.92 -0.442,1.831 -0.662,2.732c-0.22,0.903 -0.461,1.776 -0.718,2.623c0.589,-1.068 1.177,-2.125 1.766,-3.175c0.589,-1.049 1.217,-2.107 1.879,-3.175c0.735,-1.177 1.499,-2.327 2.29,-3.451c0.792,-1.122 1.685,-2.161 2.679,-3.119l0.995,-0.994c0.403,-0.405 0.808,-0.782 1.214,-1.132c0.403,-0.349 0.837,-0.653 1.296,-0.911c0.462,-0.257 0.912,-0.422 1.355,-0.497c1.287,-0.11 2.335,0.249 3.146,1.077c0.809,0.828 1.288,1.832 1.435,3.009c0.185,1.289 0.028,2.54 -0.468,3.755c-0.499,1.215 -1.189,2.263 -2.071,3.147c-0.701,0.737 -1.464,1.325 -2.293,1.767c-0.828,0.442 -1.701,0.8 -2.622,1.076c-0.919,0.276 -1.86,0.489 -2.815,0.636c-0.958,0.147 -1.915,0.257 -2.871,0.331l0.386,0.166c0.626,0.294 1.178,0.681 1.657,1.159c0.477,0.479 0.901,1.013 1.27,1.601c0.736,1.178 1.139,2.429 1.214,3.755c0.074,1.325 0.054,2.668 -0.056,4.031c0,0.184 -0.019,0.395 -0.054,0.635c-0.038,0.239 -0.047,0.487 -0.027,0.745c0.017,0.258 0.073,0.479 0.165,0.663c0.091,0.183 0.249,0.294 0.469,0.33c0.662,0.111 1.307,-0.045 1.932,-0.468c0.626,-0.423 1.141,-0.856 1.547,-1.298c0.994,-1.03 1.867,-2.181 2.622,-3.451c0.755,-1.271 1.445,-2.549 2.071,-3.837c0.183,-0.332 0.341,-0.662 0.47,-0.995c0.127,-0.331 0.265,-0.662 0.414,-0.994c0.073,-0.183 0.147,-0.386 0.22,-0.606c0.073,-0.222 0.183,-0.424 0.332,-0.608c0.184,-0.183 0.395,-0.23 0.634,-0.138c0.24,0.093 0.358,0.267 0.358,0.524c0,0.185 -0.053,0.369 -0.164,0.552c-0.112,0.186 -0.202,0.369 -0.276,0.552c-0.591,1.216 -1.208,2.431 -1.85,3.645c-0.645,1.215 -1.372,2.375 -2.181,3.479c-0.701,0.993 -1.518,2.006 -2.456,3.037c-0.941,1.031 -2.017,1.73 -3.231,2.098c-0.626,0.184 -1.187,0.173 -1.685,-0.027c-0.496,-0.203 -0.929,-0.507 -1.296,-0.913c-0.369,-0.403 -0.69,-0.864 -0.966,-1.38c-0.276,-0.514 -0.49,-1.029 -0.637,-1.545c-0.33,-1.067 -0.56,-2.135 -0.69,-3.202c-0.129,-1.068 -0.174,-2.136 -0.138,-3.203c0,-0.479 -0.045,-0.975 -0.138,-1.491c-0.093,-0.515 -0.256,-0.974 -0.496,-1.38c-0.239,-0.405 -0.58,-0.718 -1.022,-0.939c-0.22,-0.147 -0.496,-0.24 -0.828,-0.276l-0.553,0.055c-0.588,1.067 -1.158,2.153 -1.71,3.258c-0.552,1.104 -1.087,2.208 -1.602,3.312l-1.491,3.424c-0.073,0.22 -0.166,0.387 -0.276,0.496c-0.259,0.589 -0.625,1.253 -1.104,1.989l-0.938,1.214c-0.184,0.184 -0.434,0.294 -0.747,0.331c-0.312,0.036 -0.487,-0.147 -0.524,-0.552" style="fill:#fff;fill-rule:nonzero;"/><path d="M159.907,45.221c1.288,-0.183 2.403,-0.735 3.341,-1.656c0.938,-0.92 1.702,-1.914 2.291,-2.982c0.332,-0.588 0.617,-1.168 0.856,-1.74c0.239,-0.569 0.47,-1.167 0.69,-1.794c0.222,-0.625 0.434,-1.27 0.636,-1.933c0.201,-0.662 0.302,-1.324 0.302,-1.987c0,-0.994 -0.321,-1.794 -0.966,-2.402c-0.643,-0.607 -1.482,-0.874 -2.51,-0.8c-0.628,0.073 -1.208,0.276 -1.741,0.607c-0.533,0.331 -1.02,0.737 -1.462,1.215c-0.442,0.478 -0.839,0.993 -1.189,1.545c-0.349,0.553 -0.67,1.069 -0.966,1.546c-1.398,2.357 -2.575,4.896 -3.533,7.62l-0.11,0.277c0.33,0.809 0.902,1.453 1.711,1.932c0.81,0.479 1.693,0.662 2.65,0.552m13.75,-0.662c-0.552,1.178 -1.143,2.319 -1.769,3.423c-0.625,1.104 -1.324,2.152 -2.096,3.147c-0.774,0.994 -1.63,1.904 -2.569,2.733c-0.938,0.828 -1.997,1.537 -3.175,2.126c-1.104,0.589 -2.262,1.013 -3.479,1.27c-1.214,0.257 -2.428,0.367 -3.642,0.33c-1.29,-0.036 -2.412,-0.422 -3.369,-1.158c-0.958,-0.736 -1.73,-1.656 -2.319,-2.76c-0.662,-1.251 -1.087,-2.578 -1.27,-3.977c-0.184,-1.398 -0.192,-2.815 -0.028,-4.252c0.166,-1.435 0.478,-2.842 0.94,-4.223c0.459,-1.38 1.001,-2.659 1.628,-3.837c0.589,-1.031 1.288,-2.071 2.099,-3.12c0.809,-1.049 1.719,-1.988 2.733,-2.816c1.011,-0.828 2.107,-1.491 3.285,-1.988c1.177,-0.497 2.411,-0.745 3.698,-0.745c1.215,0 2.254,0.313 3.121,0.939c0.863,0.626 1.545,1.407 2.043,2.346c0.496,0.939 0.8,1.97 0.91,3.092c0.11,1.123 0.02,2.2 -0.276,3.23c-0.295,1.068 -0.727,2.117 -1.296,3.147c-0.572,1.031 -1.262,1.952 -2.071,2.761c-0.811,0.811 -1.712,1.482 -2.707,2.015c-0.994,0.534 -2.079,0.82 -3.256,0.856c-1.141,0.075 -2.237,-0.11 -3.285,-0.553c-1.051,-0.441 -1.887,-1.121 -2.513,-2.042c-0.295,1.068 -0.535,2.135 -0.718,3.203c-0.186,1.067 -0.296,2.152 -0.332,3.257c0,0.59 0.036,1.18 0.112,1.767c0.073,0.59 0.228,1.132 0.468,1.63c0.239,0.496 0.561,0.929 0.966,1.296c0.406,0.369 0.921,0.628 1.547,0.774c1.251,0.295 2.501,0.276 3.754,-0.056c1.252,-0.331 2.429,-0.856 3.533,-1.573c1.105,-0.717 2.127,-1.565 3.065,-2.54c0.938,-0.975 1.739,-1.941 2.403,-2.899c0.513,-0.773 0.983,-1.563 1.406,-2.374c0.423,-0.809 0.82,-1.637 1.189,-2.485c0.11,-0.294 0.265,-0.597 0.468,-0.911c0.202,-0.312 0.507,-0.377 0.912,-0.193c0.22,0.074 0.285,0.23 0.192,0.469c-0.091,0.24 -0.192,0.469 -0.302,0.691" style="fill:#fff;fill-rule:nonzero;"/><path d="M12.086,86.875l-4.612,18.262l-2.783,0l-4.691,-18.262l2.438,0l3.684,15.665l3.605,-15.665l2.359,0Z" style="fill:#fff;fill-rule:nonzero;"/><path d="M37.242,86.875l-0.266,1.935l-5.698,0l0,6.069l4.956,0l0,1.935l-4.956,0l0,6.388l6.069,0l0,1.935l-8.48,0l0,-18.262l8.375,0Z" style="fill:#fff;fill-rule:nonzero;"/><path d="M60.727,94.654c0.565,-0.556 0.848,-1.436 0.848,-2.637c0,-1.113 -0.292,-1.931 -0.875,-2.45c-0.582,-0.522 -1.564,-0.783 -2.942,-0.783l-1.219,0l0,6.705l1.431,0c1.273,0 2.191,-0.278 2.757,-0.835m1.564,10.483l-3.552,-7.819c-0.124,0.017 -0.309,0.026 -0.556,0.026l-1.644,0l0,7.793l-2.411,0l0,-18.262l3.657,0c2.137,0 3.728,0.442 4.771,1.326c1.042,0.882 1.564,2.155 1.564,3.816c0,1.166 -0.274,2.169 -0.822,3.008c-0.548,0.839 -1.334,1.454 -2.359,1.842l4.002,8.27l-2.65,0Z" style="fill:#fff;fill-rule:nonzero;"/><path d="M88.321,94.654c0.565,-0.556 0.849,-1.436 0.849,-2.637c0,-1.113 -0.292,-1.931 -0.875,-2.45c-0.583,-0.522 -1.563,-0.783 -2.942,-0.783l-1.219,0l0,6.705l1.431,0c1.272,0 2.191,-0.278 2.756,-0.835m1.564,10.483l-3.551,-7.819c-0.125,0.017 -0.31,0.026 -0.557,0.026l-1.643,0l0,7.793l-2.412,0l0,-18.262l3.657,0c2.138,0 3.728,0.442 4.771,1.326c1.042,0.882 1.564,2.155 1.564,3.816c0,1.166 -0.274,2.169 -0.822,3.008c-0.548,0.839 -1.334,1.454 -2.358,1.842l4.002,8.27l-2.651,0Z" style="fill:#fff;fill-rule:nonzero;"/><path d="M117.691,86.875l-0.265,1.935l-5.698,0l0,6.069l4.956,0l0,1.935l-4.956,0l0,6.388l6.069,0l0,1.935l-8.481,0l0,-18.262l8.375,0Z" style="fill:#fff;fill-rule:nonzero;"/><path d="M145.471,86.875l-0.265,2.014l-4.055,0l0,16.248l-2.412,0l0,-16.248l-4.161,0l0,-2.014l10.893,0Z" style="fill:#fff;fill-rule:nonzero;"/><path d="M170.547,105.137l0,-8.589l-5.884,0l0,8.589l-2.411,0l0,-18.262l2.411,0l0,7.687l5.884,0l0,-7.687l2.411,0l0,18.262l-2.411,0Z" style="fill:#fff;fill-rule:nonzero;"/></g></g></svg>